<svg id="Capa_1" enable-background="new 0 0 511.983 511.983" height="512" viewBox="0 0 511.983 511.983" width="512" xmlns="http://www.w3.org/2000/svg"><g><path d="m410.568 218.505c10.151 21.809 15.833 46.103 15.833 71.701s-5.682 49.892-15.833 71.701h101.256l.159-143.402z"/><path d="m85.406 290.207c0-25.599 5.682-49.892 15.833-71.701h-101.063l-.159 143.402h101.222c-10.151-21.81-15.833-46.103-15.833-71.701z"/><path d="m.109 164.438-.067 24.067h119.101c11.285-15.137 25.024-28.339 40.617-39.025h-144.651c-8.268 0-14.977 6.69-15 14.958z"/><path d="m352.047 149.48c15.593 10.687 29.331 23.889 40.617 39.025h119.186l.066-23.983c.011-4.015-1.544-7.791-4.379-10.634s-6.606-4.408-10.621-4.408z"/><path d="m351.028 119.48-16.452-30.659c-2.617-4.878-7.682-7.908-13.217-7.908h-130.526c-5.535 0-10.6 3.03-13.217 7.908l-16.452 30.659z"/><path d="m159.957 431.071c-15.675-10.71-29.481-23.962-40.814-39.163h-119.143v24.163c0 8.271 6.729 15 15 15z"/><path d="m351.85 431.071h144.958c8.271 0 15-6.729 15-15v-24.163h-119.143c-11.334 15.201-25.14 28.452-40.815 39.163z"/><path d="m396.401 290.207c0-77.471-63.027-140.497-140.498-140.497s-140.497 63.026-140.497 140.497 63.026 140.498 140.497 140.498 140.498-63.028 140.498-140.498zm-240.366 0c0-55.067 44.801-99.868 99.868-99.868s99.868 44.801 99.868 99.868-44.801 99.868-99.868 99.868-99.868-44.801-99.868-99.868z"/><circle cx="255.903" cy="290.207" r="69.868"/><path d="m57.61 97.033c0-8.271-6.729-15-15-15h-16.369c-8.271 0-15 6.729-15 15v22.447h46.369z"/></g></svg>